<svg width="20" height="20" viewBox="0 0 20 20" fill="none" xmlns="http://www.w3.org/2000/svg">
<g clip-path="url(#clip0_941_19143)">
<path d="M14.1667 13.3333C14.3877 13.3333 14.5997 13.2455 14.7559 13.0892C14.9122 12.933 15 12.721 15 12.5C15 12.279 14.9122 12.067 14.7559 11.9107C14.5997 11.7545 14.3877 11.6667 14.1667 11.6667C13.9457 11.6667 13.7337 11.7545 13.5774 11.9107C13.4211 12.067 13.3333 12.279 13.3333 12.5C13.3333 12.721 13.4211 12.933 13.5774 13.0892C13.7337 13.2455 13.9457 13.3333 14.1667 13.3333Z" fill="#637381"/>
<path fill-rule="evenodd" clip-rule="evenodd" d="M4.99999 2.49999C4.99999 2.27898 5.08779 2.06701 5.24407 1.91073C5.40035 1.75445 5.61231 1.66666 5.83332 1.66666C6.05434 1.66666 6.2663 1.75445 6.42258 1.91073C6.57886 2.06701 6.66666 2.27898 6.66666 2.49999V3.33332H13.3333V2.49999C13.3333 2.27898 13.4211 2.06701 13.5774 1.91073C13.7337 1.75445 13.9456 1.66666 14.1667 1.66666C14.3877 1.66666 14.5996 1.75445 14.7559 1.91073C14.9122 2.06701 15 2.27898 15 2.49999V3.33332H15.8333C16.4964 3.33332 17.1322 3.59672 17.6011 4.06556C18.0699 4.5344 18.3333 5.17028 18.3333 5.83332V14.1667C18.3333 14.8297 18.0699 15.4656 17.6011 15.9344C17.1322 16.4033 16.4964 16.6667 15.8333 16.6667H4.16666C3.50362 16.6667 2.86773 16.4033 2.39889 15.9344C1.93005 15.4656 1.66666 14.8297 1.66666 14.1667V5.83332C1.66666 5.17028 1.93005 4.5344 2.39889 4.06556C2.86773 3.59672 3.50362 3.33332 4.16666 3.33332H4.99999V2.49999ZM13.3333 4.99999V5.83332C13.3333 6.05434 13.4211 6.2663 13.5774 6.42258C13.7337 6.57886 13.9456 6.66666 14.1667 6.66666C14.3877 6.66666 14.5996 6.57886 14.7559 6.42258C14.9122 6.2663 15 6.05434 15 5.83332V4.99999H15.8333C16.0543 4.99999 16.2663 5.08779 16.4226 5.24407C16.5789 5.40035 16.6667 5.61231 16.6667 5.83332V8.33332H3.33332V5.83332C3.33332 5.61231 3.42112 5.40035 3.5774 5.24407C3.73368 5.08779 3.94564 4.99999 4.16666 4.99999H4.99999V5.83332C4.99999 6.05434 5.08779 6.2663 5.24407 6.42258C5.40035 6.57886 5.61231 6.66666 5.83332 6.66666C6.05434 6.66666 6.2663 6.57886 6.42258 6.42258C6.57886 6.2663 6.66666 6.05434 6.66666 5.83332V4.99999H13.3333ZM3.33332 9.99999H16.6667V14.1667C16.6667 14.3877 16.5789 14.5996 16.4226 14.7559C16.2663 14.9122 16.0543 15 15.8333 15H4.16666C3.94564 15 3.73368 14.9122 3.5774 14.7559C3.42112 14.5996 3.33332 14.3877 3.33332 14.1667V9.99999Z" fill="#637381"/>
</g>
<defs>
<clipPath id="clip0_941_19143">
<rect width="20" height="20" fill="white"/>
</clipPath>
</defs>
</svg>
